<svg width="6800" height="2000" viewBox="0 0 6800 2000" fill="none" xmlns="http://www.w3.org/2000/svg">
<path d="M405.698 1226.68C388.083 1231.89 369.581 1221.83 364.373 1204.22C359.166 1186.6 369.225 1168.1 386.841 1162.89L386.988 1162.85L387.334 1162.75C387.63 1162.66 388.055 1162.54 388.605 1162.38C389.705 1162.06 391.301 1161.6 393.351 1161.02C397.45 1159.87 403.364 1158.23 410.74 1156.28C425.476 1152.37 446.116 1147.16 469.799 1141.94C516.542 1131.65 577.488 1120.81 628.472 1120.81C727.913 1120.81 790.893 1138.24 870.554 1163.03C947.951 1187.11 1003.41 1202.24 1092.88 1202.24C1183.06 1202.24 1248.23 1184.8 1288.04 1171.6C1305.47 1165.81 1324.3 1175.26 1330.08 1192.69C1335.87 1210.13 1326.42 1228.95 1308.99 1234.74C1264.47 1249.5 1192.05 1268.77 1092.88 1268.77C993.435 1268.77 930.454 1251.33 850.793 1226.55C773.396 1202.47 717.942 1187.33 628.472 1187.33C584.999 1187.33 529.844 1196.84 484.1 1206.91C461.54 1211.88 441.84 1216.85 427.797 1220.57C420.783 1222.43 415.198 1223.98 411.395 1225.05C409.493 1225.59 408.038 1226 407.074 1226.28C406.592 1226.42 406.233 1226.53 406.001 1226.59L405.752 1226.67L405.698 1226.68Z" fill="url(#paint0_linear_548_83)"/>
<path d="M364.373 1368.45C359.166 1350.83 369.225 1332.33 386.841 1327.12L386.988 1327.08L387.334 1326.98C387.63 1326.89 388.055 1326.77 388.605 1326.61C389.705 1326.29 391.301 1325.83 393.351 1325.26C397.45 1324.1 403.364 1322.47 410.74 1320.51C425.476 1316.6 446.116 1311.39 469.799 1306.18C516.542 1295.89 577.488 1285.04 628.472 1285.04C727.913 1285.04 790.893 1302.48 870.554 1327.26C947.951 1351.34 1003.41 1366.48 1092.88 1366.48C1183.71 1366.48 1262.52 1348.79 1301.58 1335.83C1319.01 1330.05 1337.84 1339.49 1343.62 1356.93C1349.41 1374.36 1339.96 1393.18 1322.52 1398.97C1277.26 1413.98 1191.4 1433 1092.88 1433C993.435 1433 930.454 1415.56 850.793 1390.78C773.396 1366.7 717.942 1351.56 628.472 1351.56C584.999 1351.56 529.844 1361.07 484.1 1371.14C461.54 1376.11 441.84 1381.08 427.797 1384.81C420.783 1386.67 415.198 1388.21 411.395 1389.28C409.493 1389.82 408.038 1390.24 407.074 1390.52C406.592 1390.66 406.233 1390.76 406.001 1390.83L405.752 1390.9L405.694 1390.92C388.08 1396.12 369.58 1386.06 364.373 1368.45Z" fill="url(#paint1_linear_548_83)"/>
<path d="M681.111 570.717C620.01 574.436 589.279 579.537 567.953 582.888C556.347 584.713 547.867 594.307 546.804 606.035L507.999 1033.95C547.514 1026.31 591.338 1020.02 628.471 1020.02C722.927 1020.02 782.144 1036.3 860.673 1060.74C939.202 1085.17 998.419 1101.46 1092.88 1101.46C1131.09 1101.46 1176.39 1094.79 1216.79 1086.85L1173.18 605.968C1172.12 594.272 1163.68 584.698 1152.11 582.863C1130.85 579.492 1100.17 574.368 1038.88 570.654C1031.13 570.184 1024.57 576.375 1024.57 584.157V635.121C1024.57 659.68 1004.66 679.59 980.1 679.59C955.54 679.59 935.631 659.68 935.631 635.12V580.135C935.631 572.763 929.762 566.735 922.409 566.595C902.453 566.213 874.999 566 860.673 566C846.347 566 817.94 566.222 797.577 566.62C790.227 566.764 784.361 572.79 784.361 580.16V635.121C784.361 659.68 764.452 679.59 739.892 679.59C715.332 679.59 695.423 659.68 695.423 635.121V584.221C695.423 576.437 688.861 570.245 681.111 570.717Z" fill="url(#paint2_linear_548_83)"/>
<path d="M6381.73 1347.41C6350.39 1347.41 6322.3 1340.02 6297.47 1325.23C6273.22 1310.45 6254.01 1290.35 6239.81 1264.92C6225.62 1238.9 6218.53 1209.34 6218.53 1176.23V742.504C6218.53 732.452 6221.48 724.174 6227.4 717.669C6233.9 711.165 6242.18 707.913 6252.23 707.913C6262.28 707.913 6270.56 711.165 6277.07 717.669C6283.57 724.174 6286.82 732.452 6286.82 742.504V1176.23C6286.82 1206.38 6295.69 1231.22 6313.43 1250.73C6331.17 1269.65 6353.94 1279.11 6381.73 1279.11H6405.67C6415.14 1279.11 6422.82 1282.36 6428.74 1288.87C6434.65 1295.37 6437.61 1303.65 6437.61 1313.7C6437.61 1323.76 6434.06 1332.03 6426.96 1338.54C6419.87 1344.45 6411 1347.41 6400.35 1347.41H6381.73ZM6160.88 939.409C6152.01 939.409 6144.61 936.748 6138.7 931.426C6132.79 925.513 6129.83 918.417 6129.83 910.139C6129.83 901.269 6132.79 894.174 6138.7 888.852C6144.61 882.939 6152.01 879.982 6160.88 879.982H6387.05C6395.92 879.982 6403.31 882.939 6409.22 888.852C6415.14 894.174 6418.09 901.269 6418.09 910.139C6418.09 918.417 6415.14 925.513 6409.22 931.426C6403.31 936.748 6395.92 939.409 6387.05 939.409H6160.88Z" fill="#1B1B2E"/>
<path d="M5805.42 1351.84C5759.89 1351.84 5719.09 1341.2 5683.02 1319.91C5646.95 1298.03 5618.27 1268.47 5596.99 1231.22C5576.29 1193.97 5565.94 1151.98 5565.94 1105.27C5565.94 1057.97 5576.59 1015.69 5597.87 978.435C5619.75 941.183 5649.32 911.913 5686.57 890.626C5723.82 868.748 5765.8 857.809 5812.52 857.809C5859.23 857.809 5900.92 868.748 5937.58 890.626C5974.83 911.913 6004.1 941.183 6025.39 978.435C6047.26 1015.69 6058.5 1057.97 6059.09 1105.27L6031.59 1126.56C6031.59 1169.13 6021.54 1207.57 6001.44 1241.86C5981.93 1275.57 5955.02 1302.47 5920.73 1322.57C5887.02 1342.09 5848.59 1351.84 5805.42 1351.84ZM5812.52 1289.76C5846.81 1289.76 5877.26 1281.77 5903.87 1265.81C5931.07 1249.84 5952.36 1227.97 5967.73 1200.17C5983.7 1171.79 5991.68 1140.16 5991.68 1105.27C5991.68 1069.79 5983.7 1038.16 5967.73 1010.37C5952.36 982.574 5931.07 960.696 5903.87 944.731C5877.26 928.174 5846.81 919.896 5812.52 919.896C5778.81 919.896 5748.36 928.174 5721.16 944.731C5693.96 960.696 5672.38 982.574 5656.41 1010.37C5640.45 1038.16 5632.46 1069.79 5632.46 1105.27C5632.46 1140.16 5640.45 1171.79 5656.41 1200.17C5672.38 1227.97 5693.96 1249.84 5721.16 1265.81C5748.36 1281.77 5778.81 1289.76 5812.52 1289.76ZM6024.5 1347.41C6014.45 1347.41 6006.17 1344.45 5999.66 1338.54C5993.16 1332.03 5989.91 1323.76 5989.91 1313.7V1162.03L6006.76 1091.97L6059.09 1105.27V1313.7C6059.09 1323.76 6055.84 1332.03 6049.33 1338.54C6042.83 1344.45 6034.55 1347.41 6024.5 1347.41Z" fill="#1B1B2E"/>
<path d="M5212.26 1351.84C5164.96 1351.84 5122.68 1341.2 5085.43 1319.91C5048.18 1298.63 5018.91 1269.36 4997.62 1232.1C4976.33 1194.85 4965.69 1152.57 4965.69 1105.27C4965.69 1057.37 4976.33 1014.8 4997.62 977.548C5018.91 940.296 5048.18 911.026 5085.43 889.739C5122.68 868.452 5164.96 857.809 5212.26 857.809C5259.57 857.809 5301.55 868.452 5338.21 889.739C5375.46 911.026 5404.73 940.296 5426.02 977.548C5447.31 1014.8 5458.24 1057.37 5458.84 1105.27C5458.84 1152.57 5447.9 1194.85 5426.02 1232.1C5404.73 1269.36 5375.46 1298.63 5338.21 1319.91C5301.55 1341.2 5259.57 1351.84 5212.26 1351.84ZM5212.26 1289.76C5246.56 1289.76 5277.31 1281.77 5304.51 1265.81C5331.71 1249.84 5352.99 1227.97 5368.37 1200.17C5383.74 1172.38 5391.43 1140.75 5391.43 1105.27C5391.43 1069.79 5383.74 1038.16 5368.37 1010.37C5352.99 981.983 5331.71 959.809 5304.51 943.844C5277.31 927.878 5246.56 919.896 5212.26 919.896C5177.97 919.896 5147.22 927.878 5120.02 943.844C5092.82 959.809 5071.24 981.983 5055.27 1010.37C5039.9 1038.16 5032.21 1069.79 5032.21 1105.27C5032.21 1140.75 5039.9 1172.38 5055.27 1200.17C5071.24 1227.97 5092.82 1249.84 5120.02 1265.81C5147.22 1281.77 5177.97 1289.76 5212.26 1289.76Z" fill="#1B1B2E"/>
<path d="M4164.37 1347.41C4154.91 1347.41 4146.63 1344.16 4139.54 1337.65C4133.03 1330.56 4129.78 1322.28 4129.78 1312.82V689.287C4129.78 679.235 4133.03 670.956 4139.54 664.452C4146.63 657.948 4154.91 654.696 4164.37 654.696C4178.56 654.696 4188.91 660.609 4195.41 672.435L4494.32 1266.7H4464.16L4757.74 672.435C4764.84 660.609 4775.19 654.696 4788.79 654.696C4798.25 654.696 4806.23 657.948 4812.74 664.452C4819.24 670.956 4822.49 679.235 4822.49 689.287V1312.82C4822.49 1322.28 4819.24 1330.56 4812.74 1337.65C4806.23 1344.16 4798.25 1347.41 4788.79 1347.41C4778.74 1347.41 4770.16 1344.16 4763.07 1337.65C4756.56 1330.56 4753.31 1322.28 4753.31 1312.82V778.869L4768.39 779.756L4506.74 1314.59C4500.23 1325.83 4490.18 1331.44 4476.58 1331.44C4461.8 1331.44 4451.15 1324.35 4444.65 1310.16L4181.22 783.304L4198.96 778.869V1312.82C4198.96 1322.28 4195.41 1330.56 4188.32 1337.65C4181.81 1344.16 4173.83 1347.41 4164.37 1347.41Z" fill="#1B1B2E"/>
<path d="M3743.06 1048.5C3744.83 1011.84 3754.29 979.025 3771.44 950.051C3789.18 921.078 3811.95 898.312 3839.74 881.756C3868.12 865.199 3899.46 856.921 3933.76 856.921C3960.96 856.921 3981.95 860.764 3996.73 868.451C4011.51 876.138 4017.13 887.373 4013.58 902.156C4011.22 911.025 4007.08 916.938 4001.16 919.895C3995.84 922.851 3989.04 924.034 3980.76 923.443C3973.08 922.851 3964.21 922.26 3954.16 921.669C3921.04 918.712 3891.48 922.26 3865.46 932.312C3840.03 941.773 3819.63 956.556 3804.26 976.66C3789.48 996.764 3782.09 1020.71 3782.09 1048.5H3743.06ZM3748.38 1347.41C3737.74 1347.41 3729.46 1344.45 3723.55 1338.54C3717.63 1332.63 3714.68 1324.35 3714.68 1313.7V895.947C3714.68 885.304 3717.63 877.025 3723.55 871.112C3729.46 865.199 3737.74 862.243 3748.38 862.243C3759.03 862.243 3767.3 865.199 3773.22 871.112C3779.13 877.025 3782.09 885.304 3782.09 895.947V1313.7C3782.09 1324.35 3779.13 1332.63 3773.22 1338.54C3767.3 1344.45 3759.03 1347.41 3748.38 1347.41Z" fill="#1B1B2E"/>
<path d="M3389.82 1351.84C3341.93 1351.84 3299.35 1341.5 3262.1 1320.8C3225.44 1299.51 3196.47 1270.24 3175.18 1232.99C3154.48 1195.74 3144.14 1153.17 3144.14 1105.27C3144.14 1056.78 3153.89 1014.21 3173.41 977.548C3193.51 940.296 3221.01 911.026 3255.89 889.739C3290.78 868.452 3330.99 857.809 3376.52 857.809C3421.46 857.809 3460.48 868.157 3493.6 888.852C3527.3 908.957 3553.32 937.044 3571.65 973.113C3589.98 1009.18 3599.14 1050.28 3599.14 1096.4C3599.14 1105.86 3596.19 1113.55 3590.28 1119.46C3584.36 1124.78 3576.68 1127.44 3567.21 1127.44H3190.26V1070.68H3574.31L3536.17 1098.17C3536.76 1063.88 3530.55 1033.13 3517.55 1005.93C3504.54 978.731 3485.91 957.444 3461.67 942.07C3438.01 926.696 3409.63 919.009 3376.52 919.009C3342.81 919.009 3313.25 926.991 3287.82 942.957C3262.4 958.922 3242.59 981.096 3228.4 1009.48C3214.8 1037.27 3208 1069.2 3208 1105.27C3208 1141.34 3215.68 1173.27 3231.06 1201.06C3247.02 1228.85 3268.61 1250.73 3295.81 1266.7C3323.01 1282.66 3354.35 1290.64 3389.82 1290.64C3411.11 1290.64 3432.4 1287.1 3453.68 1280C3475.56 1272.31 3493.01 1262.85 3506.01 1251.62C3512.52 1246.3 3519.91 1243.63 3528.19 1243.63C3536.47 1243.04 3543.56 1245.11 3549.48 1249.84C3557.16 1256.94 3561.01 1264.63 3561.01 1272.9C3561.6 1281.18 3558.35 1288.28 3551.25 1294.19C3531.74 1310.75 3506.9 1324.64 3476.75 1335.88C3446.59 1346.52 3417.61 1351.84 3389.82 1351.84Z" fill="#1B1B2E"/>
<path d="M2862.79 1347.41C2848.6 1347.41 2837.96 1339.72 2830.86 1324.35L2633.96 906.591C2630.41 898.904 2630.11 891.217 2633.07 883.53C2636.03 875.843 2641.94 869.93 2650.81 865.791C2659.09 861.652 2667.07 861.06 2674.76 864.017C2682.44 866.973 2688.36 872.295 2692.5 879.982L2881.42 1288.87H2845.05L3031.31 879.982C3034.86 871.704 3040.77 866.382 3049.05 864.017C3057.92 861.06 3066.5 861.356 3074.77 864.904C3083.05 869.043 3088.67 875.252 3091.63 883.53C3094.58 891.217 3094.29 898.608 3090.74 905.704L2896.5 1324.35C2889.4 1339.72 2878.16 1347.41 2862.79 1347.41Z" fill="#1B1B2E"/>
<path d="M2578.12 1347.41C2554.47 1347.41 2533.18 1340.9 2514.26 1327.9C2495.93 1314.89 2481.44 1296.85 2470.8 1273.79C2460.75 1250.73 2455.72 1224.12 2455.72 1193.97V688.4C2455.72 678.348 2458.68 670.365 2464.59 664.452C2471.09 657.948 2479.37 654.696 2489.42 654.696C2499.48 654.696 2507.46 657.948 2513.37 664.452C2519.88 670.365 2523.13 678.348 2523.13 688.4V1193.97C2523.13 1219.39 2528.15 1240.09 2538.21 1256.05C2548.85 1272.02 2562.15 1280 2578.12 1280H2600.29C2609.16 1280 2616.26 1283.25 2621.58 1289.76C2626.9 1295.67 2629.56 1303.65 2629.56 1313.7C2629.56 1323.76 2625.72 1332.03 2618.03 1338.54C2610.94 1344.45 2601.48 1347.41 2589.65 1347.41H2578.12Z" fill="#1B1B2E"/>
<path d="M2265.85 1347.41C2255.21 1347.41 2246.64 1344.45 2240.13 1338.54C2234.22 1332.03 2231.26 1323.46 2231.26 1312.82V896.834C2231.26 886.191 2234.22 877.913 2240.13 872C2246.64 865.495 2255.21 862.243 2265.85 862.243C2275.91 862.243 2283.89 865.495 2289.8 872C2296.31 877.913 2299.56 886.191 2299.56 896.834V1312.82C2299.56 1323.46 2296.31 1332.03 2289.8 1338.54C2283.89 1344.45 2275.91 1347.41 2265.85 1347.41ZM2264.97 770C2251.96 770 2240.72 765.269 2231.26 755.808C2221.8 746.348 2217.07 734.817 2217.07 721.217C2217.07 706.435 2221.8 694.904 2231.26 686.626C2241.32 677.756 2252.85 673.321 2265.85 673.321C2278.27 673.321 2289.21 677.756 2298.67 686.626C2308.72 694.904 2313.75 706.435 2313.75 721.217C2313.75 734.817 2309.02 746.348 2299.56 755.808C2290.1 765.269 2278.57 770 2264.97 770Z" fill="#1B1B2E"/>
<path d="M1851.55 1356.28C1813.71 1356.28 1778.52 1350.96 1746 1340.31C1714.07 1329.08 1686.28 1313.41 1662.63 1293.3C1638.98 1273.2 1620.94 1249.84 1608.52 1223.23C1603.79 1213.77 1603.5 1205.2 1607.64 1197.51C1612.37 1189.23 1620.05 1183.62 1630.7 1180.66C1638.98 1178.3 1646.96 1179.18 1654.65 1183.32C1662.92 1187.46 1669.13 1193.67 1673.27 1201.95C1682.14 1219.1 1695.15 1234.47 1712.3 1248.07C1729.45 1261.67 1749.85 1272.31 1773.5 1280C1797.15 1287.1 1823.17 1290.64 1851.55 1290.64C1882.89 1290.64 1910.68 1285.62 1934.92 1275.57C1959.17 1264.92 1978.09 1249.84 1991.69 1230.33C2005.88 1210.23 2012.98 1185.98 2012.98 1157.6C2012.98 1121.53 1999.67 1090.49 1973.06 1064.47C1946.45 1038.45 1904.77 1021.9 1848 1014.8C1778.82 1006.52 1724.71 985.235 1685.69 950.939C1646.66 916.052 1627.15 873.478 1627.15 823.217C1627.15 787.148 1636.61 755.809 1655.53 729.2C1675.05 702.591 1701.65 682.191 1735.36 668C1769.06 653.217 1807.79 645.826 1851.55 645.826C1884.07 645.826 1913.64 651.148 1940.25 661.791C1966.85 671.843 1989.91 685.443 2009.43 702.591C2029.53 719.148 2045.79 737.478 2058.21 757.583C2064.12 767.043 2065.9 776.209 2063.53 785.078C2061.76 793.948 2056.73 800.748 2048.45 805.478C2039.58 809.617 2030.42 810.209 2020.96 807.252C2012.09 804.296 2005.29 798.678 2000.56 790.4C1991.69 776.8 1980.45 764.087 1966.85 752.261C1953.85 739.843 1937.88 730.087 1918.96 722.991C1900.04 715.896 1877.27 712.052 1850.66 711.461C1803.95 711.461 1766.4 721.513 1738.02 741.617C1709.64 761.13 1695.45 789.809 1695.45 827.652C1695.45 847.756 1700.77 866.383 1711.41 883.53C1722.05 900.087 1739.5 914.574 1763.74 926.991C1788.58 938.817 1821.69 947.687 1863.08 953.6C1936.99 964.243 1991.69 987.009 2027.17 1021.9C2063.24 1056.19 2081.27 1101.13 2081.27 1156.71C2081.27 1188.64 2075.36 1217.03 2063.53 1241.86C2052.3 1266.7 2036.04 1287.69 2014.75 1304.83C1994.05 1321.39 1969.51 1334.1 1941.13 1342.97C1913.34 1351.84 1883.48 1356.28 1851.55 1356.28Z" fill="#1B1B2E"/>
<defs>
<linearGradient id="paint0_linear_548_83" x1="363" y1="566" x2="1345.3" y2="1433" gradientUnits="userSpaceOnUse">
<stop stop-color="#D99AD3"/>
<stop offset="0.33" stop-color="#989DFC"/>
<stop offset="0.875899" stop-color="#42A1B8"/>
</linearGradient>
<linearGradient id="paint1_linear_548_83" x1="363" y1="566" x2="1345.3" y2="1433" gradientUnits="userSpaceOnUse">
<stop stop-color="#D99AD3"/>
<stop offset="0.33" stop-color="#989DFC"/>
<stop offset="0.875899" stop-color="#42A1B8"/>
</linearGradient>
<linearGradient id="paint2_linear_548_83" x1="363" y1="566" x2="1345.3" y2="1433" gradientUnits="userSpaceOnUse">
<stop stop-color="#D99AD3"/>
<stop offset="0.33" stop-color="#989DFC"/>
<stop offset="0.875899" stop-color="#42A1B8"/>
</linearGradient>
</defs>
</svg>
