<svg xmlns="http://www.w3.org/2000/svg" width="6800" height="2000" fill="none" viewBox="0 0 6800 2000"><path fill="url(#a)" d="M405.698 1226.68c-17.615 5.21-36.117-4.85-41.325-22.46-5.207-17.62 4.852-36.12 22.468-41.33l.147-.04.346-.1c.296-.09.721-.21 1.271-.37 1.1-.32 2.696-.78 4.746-1.36 4.099-1.15 10.013-2.79 17.389-4.74 14.736-3.91 35.376-9.12 59.059-14.34 46.743-10.29 107.689-21.13 158.673-21.13 99.441 0 162.421 17.43 242.082 42.22 77.397 24.08 132.856 39.21 222.326 39.21 90.18 0 155.35-17.44 195.16-30.64 17.43-5.79 36.26 3.66 42.04 21.09 5.79 17.44-3.66 36.26-21.09 42.05-44.52 14.76-116.94 34.03-216.11 34.03-99.445 0-162.426-17.44-242.087-42.22-77.397-24.08-132.851-39.22-222.321-39.22-43.473 0-98.628 9.51-144.372 19.58-22.56 4.97-42.26 9.94-56.303 13.66-7.014 1.86-12.599 3.41-16.402 4.48-1.902.54-3.357.95-4.321 1.23-.482.14-.841.25-1.073.31l-.249.08z"/><path fill="url(#b)" d="M364.373 1368.45c-5.207-17.62 4.852-36.12 22.468-41.33l.147-.04.346-.1c.296-.09.721-.21 1.271-.37 1.1-.32 2.696-.78 4.746-1.35 4.099-1.16 10.013-2.79 17.389-4.75 14.736-3.91 35.376-9.12 59.059-14.33 46.743-10.29 107.689-21.14 158.673-21.14 99.441 0 162.421 17.44 242.082 42.22 77.397 24.08 132.856 39.22 222.326 39.22 90.83 0 169.64-17.69 208.7-30.65 17.43-5.78 36.26 3.66 42.04 21.1 5.79 17.43-3.66 36.25-21.1 42.04-45.26 15.01-131.12 34.03-229.64 34.03-99.445 0-162.426-17.44-242.087-42.22-77.397-24.08-132.851-39.22-222.321-39.22-43.473 0-98.628 9.51-144.372 19.58-22.56 4.97-42.26 9.94-56.303 13.67-7.014 1.86-12.599 3.4-16.402 4.47-1.902.54-3.357.96-4.321 1.24-.482.14-.841.24-1.073.31l-.249.07-.058.02c-17.614 5.2-36.114-4.86-41.321-22.47"/><path fill="url(#c)" d="M681.111 570.717c-61.101 3.719-91.832 8.82-113.158 12.171-11.606 1.825-20.086 11.419-21.149 23.147l-38.805 427.915c39.515-7.64 83.339-13.93 120.472-13.93 94.456 0 153.673 16.28 232.202 40.72 78.529 24.43 137.746 40.72 232.207 40.72 38.21 0 83.51-6.67 123.91-14.61l-43.61-480.882c-1.06-11.696-9.5-21.27-21.07-23.105-21.26-3.371-51.94-8.495-113.23-12.209-7.75-.47-14.31 5.721-14.31 13.503v50.964c0 24.559-19.91 44.469-44.47 44.469s-44.469-19.91-44.469-44.47v-54.985c0-7.372-5.869-13.4-13.222-13.54-19.956-.382-47.41-.595-61.736-.595s-42.733.222-63.096.62c-7.35.144-13.216 6.17-13.216 13.54v54.961c0 24.559-19.909 44.469-44.469 44.469s-44.469-19.91-44.469-44.469v-50.9c0-7.784-6.562-13.976-14.312-13.504"/><path fill="#1b1b2e" d="M6381.73 1347.41c-31.34 0-59.43-7.39-84.26-22.18-24.25-14.78-43.46-34.88-57.66-60.31-14.19-26.02-21.28-55.58-21.28-88.69V742.504c0-10.052 2.95-18.33 8.87-24.835 6.5-6.504 14.78-9.756 24.83-9.756q15.075 0 24.84 9.756 9.75 9.757 9.75 24.835v433.726c0 30.15 8.87 54.99 26.61 74.5 17.74 18.92 40.51 28.38 68.3 28.38h23.94c9.47 0 17.15 3.25 23.07 9.76 5.91 6.5 8.87 14.78 8.87 24.83 0 10.06-3.55 18.33-10.65 24.84-7.09 5.91-15.96 8.87-26.61 8.87zm-220.85-408.001c-8.87 0-16.27-2.661-22.18-7.983-5.91-5.913-8.87-13.009-8.87-21.287 0-8.87 2.96-15.965 8.87-21.287 5.91-5.913 13.31-8.87 22.18-8.87h226.17q13.305 0 22.17 8.87c5.92 5.322 8.87 12.417 8.87 21.287 0 8.278-2.95 15.374-8.87 21.287q-8.865 7.983-22.17 7.983zM5805.42 1351.84c-45.53 0-86.33-10.64-122.4-31.93-36.07-21.88-64.75-51.44-86.03-88.69-20.7-37.25-31.05-79.24-31.05-125.95 0-47.3 10.65-89.58 31.93-126.835 21.88-37.252 51.45-66.522 88.7-87.809 37.25-21.878 79.23-32.817 125.95-32.817 46.71 0 88.4 10.939 125.06 32.817q55.875 31.93 87.81 87.809c21.87 37.255 33.11 79.535 33.7 126.835l-27.5 21.29c0 42.57-10.05 81.01-30.15 115.3-19.51 33.71-46.42 60.61-80.71 80.71-33.71 19.52-72.14 29.27-115.31 29.27m7.1-62.08c34.29 0 64.74-7.99 91.35-23.95 27.2-15.97 48.49-37.84 63.86-65.64 15.97-28.38 23.95-60.01 23.95-94.9 0-35.48-7.98-67.11-23.95-94.9-15.37-27.796-36.66-49.674-63.86-65.639q-39.915-24.835-91.35-24.835c-33.71 0-64.16 8.278-91.36 24.835-27.2 15.965-48.78 37.843-64.75 65.639-15.96 27.79-23.95 59.42-23.95 94.9 0 34.89 7.99 66.52 23.95 94.9 15.97 27.8 37.55 49.67 64.75 65.64 27.2 15.96 57.65 23.95 91.36 23.95m211.98 57.65c-10.05 0-18.33-2.96-24.84-8.87-6.5-6.51-9.75-14.78-9.75-24.84v-151.67l16.85-70.06 52.33 13.3v208.43c0 10.06-3.25 18.33-9.76 24.84-6.5 5.91-14.78 8.87-24.83 8.87M5212.26 1351.84c-47.3 0-89.58-10.64-126.83-31.93q-55.875-31.92-87.81-87.81c-21.29-37.25-31.93-79.53-31.93-126.83 0-47.9 10.64-90.47 31.93-127.722q31.935-55.878 87.81-87.809c37.25-21.287 79.53-31.93 126.83-31.93 47.31 0 89.29 10.643 125.95 31.93q55.875 31.93 87.81 87.809c21.29 37.252 32.22 79.822 32.82 127.722 0 47.3-10.94 89.58-32.82 126.83q-31.935 55.89-87.81 87.81c-36.66 21.29-78.64 31.93-125.95 31.93m0-62.08c34.3 0 65.05-7.99 92.25-23.95 27.2-15.97 48.48-37.84 63.86-65.64 15.37-27.79 23.06-59.42 23.06-94.9s-7.69-67.11-23.06-94.9c-15.38-28.387-36.66-50.561-63.86-66.526q-40.8-23.949-92.25-23.948c-34.29 0-65.04 7.982-92.24 23.948-27.2 15.965-48.78 38.139-64.75 66.526-15.37 27.79-23.06 59.42-23.06 94.9s7.69 67.11 23.06 94.9c15.97 27.8 37.55 49.67 64.75 65.64 27.2 15.96 57.95 23.95 92.24 23.95M4164.37 1347.41c-9.46 0-17.74-3.25-24.83-9.76-6.51-7.09-9.76-15.37-9.76-24.83V689.287c0-10.052 3.25-18.331 9.76-24.835 7.09-6.504 15.37-9.756 24.83-9.756 14.19 0 24.54 5.913 31.04 17.739l298.91 594.265h-30.16l293.58-594.265q10.65-17.739 31.05-17.739c9.46 0 17.44 3.252 23.95 9.756q9.75 9.756 9.75 24.835v623.533c0 9.46-3.25 17.74-9.75 24.83-6.51 6.51-14.49 9.76-23.95 9.76-10.05 0-18.63-3.25-25.72-9.76-6.51-7.09-9.76-15.37-9.76-24.83V778.869l15.08.887-261.65 534.834c-6.51 11.24-16.56 16.85-30.16 16.85-14.78 0-25.43-7.09-31.93-21.28l-263.43-526.856 17.74-4.435v533.951c0 9.46-3.55 17.74-10.64 24.83-6.51 6.51-14.49 9.76-23.95 9.76M3743.06 1048.5q2.655-54.989 28.38-98.449c17.74-28.973 40.51-51.739 68.3-68.295q42.57-24.835 94.02-24.835 40.8 0 62.97 11.53c14.78 7.687 20.4 18.922 16.85 33.705q-3.54 13.303-12.42 17.739-7.98 4.434-20.4 3.548c-7.68-.592-16.55-1.183-26.6-1.774-33.12-2.957-62.68.591-88.7 10.643q-38.145 14.192-61.2 44.348-22.17 30.155-22.17 71.84zm5.32 298.91c-10.64 0-18.92-2.96-24.83-8.87-5.92-5.91-8.87-14.19-8.87-24.84V895.947c0-10.643 2.95-18.922 8.87-24.835 5.91-5.913 14.19-8.869 24.83-8.869 10.65 0 18.92 2.956 24.84 8.869 5.91 5.913 8.87 14.192 8.87 24.835V1313.7c0 10.65-2.96 18.93-8.87 24.84-5.92 5.91-14.19 8.87-24.84 8.87M3389.82 1351.84c-47.89 0-90.47-10.34-127.72-31.04-36.66-21.29-65.63-50.56-86.92-87.81-20.7-37.25-31.04-79.82-31.04-127.72 0-48.49 9.75-91.06 29.27-127.722 20.1-37.252 47.6-66.522 82.48-87.809q52.335-31.93 120.63-31.93c44.94 0 83.96 10.348 117.08 31.043 33.7 20.105 59.72 48.192 78.05 84.261 18.33 36.067 27.49 77.167 27.49 123.287 0 9.46-2.95 17.15-8.86 23.06-5.92 5.32-13.6 7.98-23.07 7.98h-376.95v-56.76h384.05l-38.14 27.49c.59-34.29-5.62-65.04-18.62-92.24-13.01-27.199-31.64-48.486-55.88-63.86-23.66-15.374-52.04-23.061-85.15-23.061-33.71 0-63.27 7.982-88.7 23.948-25.42 15.965-45.23 38.139-59.42 66.523q-20.4 41.685-20.4 95.79c0 36.07 7.68 68 23.06 95.79 15.96 27.79 37.55 49.67 64.75 65.64 27.2 15.96 58.54 23.94 94.01 23.94 21.29 0 42.58-3.54 63.86-10.64 21.88-7.69 39.33-17.15 52.33-28.38 6.51-5.32 13.9-7.99 22.18-7.99 8.28-.59 15.37 1.48 21.29 6.21 7.68 7.1 11.53 14.79 11.53 23.06.59 8.28-2.66 15.38-9.76 21.29-19.51 16.56-44.35 30.45-74.5 41.69-30.16 10.64-59.14 15.96-86.93 15.96M2862.79 1347.41c-14.19 0-24.83-7.69-31.93-23.06l-196.9-417.759c-3.55-7.687-3.85-15.374-.89-23.061s8.87-13.6 17.74-17.739c8.28-4.139 16.26-4.731 23.95-1.774 7.68 2.956 13.6 8.278 17.74 15.965l188.92 408.888h-36.37l186.26-408.888c3.55-8.278 9.46-13.6 17.74-15.965 8.87-2.957 17.45-2.661 25.72.887q12.42 6.209 16.86 18.626c2.95 7.687 2.66 15.078-.89 22.174L2896.5 1324.35c-7.1 15.37-18.34 23.06-33.71 23.06M2578.12 1347.41c-23.65 0-44.94-6.51-63.86-19.51-18.33-13.01-32.82-31.05-43.46-54.11-10.05-23.06-15.08-49.67-15.08-79.82V688.4c0-10.052 2.96-18.035 8.87-23.948 6.5-6.504 14.78-9.756 24.83-9.756 10.06 0 18.04 3.252 23.95 9.756 6.51 5.913 9.76 13.896 9.76 23.948v505.57c0 25.42 5.02 46.12 15.08 62.08 10.64 15.97 23.94 23.95 39.91 23.95h22.17c8.87 0 15.97 3.25 21.29 9.76q7.98 8.865 7.98 23.94c0 10.06-3.84 18.33-11.53 24.84-7.09 5.91-16.55 8.87-28.38 8.87zM2265.85 1347.41c-10.64 0-19.21-2.96-25.72-8.87-5.91-6.51-8.87-15.08-8.87-25.72V896.834c0-10.643 2.96-18.921 8.87-24.834 6.51-6.505 15.08-9.757 25.72-9.757 10.06 0 18.04 3.252 23.95 9.757 6.51 5.913 9.76 14.191 9.76 24.834v415.986c0 10.64-3.25 19.21-9.76 25.72-5.91 5.91-13.89 8.87-23.95 8.87m-.88-577.41c-13.01 0-24.25-4.731-33.71-14.192q-14.19-14.19-14.19-34.591 0-22.173 14.19-34.591 15.09-13.305 34.59-13.305 18.63 0 32.82 13.305c10.05 8.278 15.08 19.809 15.08 34.591q0 20.4-14.19 34.591T2264.97 770M1851.55 1356.28c-37.84 0-73.03-5.32-105.55-15.97q-47.895-16.845-83.37-47.01c-23.65-20.1-41.69-43.46-54.11-70.07-4.73-9.46-5.02-18.03-.88-25.72 4.73-8.28 12.41-13.89 23.06-16.85 8.28-2.36 16.26-1.48 23.95 2.66 8.27 4.14 14.48 10.35 18.62 18.63 8.87 17.15 21.88 32.52 39.03 46.12s37.55 24.24 61.2 31.93c23.65 7.1 49.67 10.64 78.05 10.64 31.34 0 59.13-5.02 83.37-15.07 24.25-10.65 43.17-25.73 56.77-45.24 14.19-20.1 21.29-44.35 21.29-72.73 0-36.07-13.31-67.11-39.92-93.13s-68.29-42.57-125.06-49.67c-69.18-8.28-123.29-29.565-162.31-63.861-39.03-34.887-58.54-77.461-58.54-127.722q0-54.104 28.38-94.017c19.52-26.609 46.12-47.009 79.83-61.2q50.55-22.174 116.19-22.174c32.52 0 62.09 5.322 88.7 15.965q39.9 15.078 69.18 40.8 30.15 24.835 48.78 54.992c5.91 9.46 7.69 18.626 5.32 27.495-1.77 8.87-6.8 15.67-15.08 20.4-8.87 4.139-18.03 4.731-27.49 1.774q-13.305-4.434-20.4-16.852c-8.87-13.6-20.11-26.313-33.71-38.139-13-12.418-28.97-22.174-47.89-29.27-18.92-7.095-41.69-10.939-68.3-11.53-46.71 0-84.26 10.052-112.64 30.156q-42.57 29.27-42.57 86.035 0 30.157 15.96 55.878c10.64 16.557 28.09 31.044 52.33 43.461 24.84 11.826 57.95 20.696 99.34 26.609 73.91 10.643 128.61 33.409 164.09 68.3 36.07 34.29 54.1 79.23 54.1 134.81 0 31.93-5.91 60.32-17.74 85.15q-16.845 37.26-48.78 62.97c-20.7 16.56-45.24 29.27-73.62 38.14-27.79 8.87-57.65 13.31-89.58 13.31"/><defs><linearGradient id="a" x1="363" x2="1345.3" y1="566" y2="1433" gradientUnits="userSpaceOnUse"><stop stop-color="#d99ad3"/><stop offset=".33" stop-color="#989dfc"/><stop offset=".876" stop-color="#42a1b8"/></linearGradient><linearGradient id="b" x1="363" x2="1345.3" y1="566" y2="1433" gradientUnits="userSpaceOnUse"><stop stop-color="#d99ad3"/><stop offset=".33" stop-color="#989dfc"/><stop offset=".876" stop-color="#42a1b8"/></linearGradient><linearGradient id="c" x1="363" x2="1345.3" y1="566" y2="1433" gradientUnits="userSpaceOnUse"><stop stop-color="#d99ad3"/><stop offset=".33" stop-color="#989dfc"/><stop offset=".876" stop-color="#42a1b8"/></linearGradient></defs></svg>